<svg xmlns="http://www.w3.org/2000/svg" xmlns:xlink="http://www.w3.org/1999/xlink" width="72" height="33" viewBox="0 0 72 33"><defs><clipPath id="b"><rect width="72" height="33"/></clipPath></defs><g id="a" clip-path="url(#b)"><path d="M28.116-20.13q.132.1.033.314a1.519,1.519,0,0,1-.313.429,2.29,2.29,0,0,1-.512.379,1.116,1.116,0,0,1-.528.165q-.792-.066-1.6-.165t-1.6-.231a3.711,3.711,0,0,0-1.2.577,3.907,3.907,0,0,0-.924,1.007,7.72,7.72,0,0,0-.759,1.568q-.347.94-.709,2.293-.231.759-.429,1.485a12.791,12.791,0,0,1-.462,1.386h3.4q.165.066.116.149t-.313.149q-.858.033-1.683.049t-1.65.049q-1.98,5.445-5.033,7.986A11.056,11.056,0,0,1,6.633,0a5.47,5.47,0,0,1-3.68-1.122,3.876,3.876,0,0,1-1.3-3.1,3.727,3.727,0,0,1,.676-2.145A4.486,4.486,0,0,1,4.257-7.92a.214.214,0,0,1,.2.115.191.191,0,0,1,0,.214A3.085,3.085,0,0,0,3.58-6.583a3.32,3.32,0,0,0-.28,1.5,4.021,4.021,0,0,0,.3,1.567A3.381,3.381,0,0,0,4.521-2.26a4.326,4.326,0,0,0,1.617.841,8.335,8.335,0,0,0,2.376.3,8.932,8.932,0,0,0,2.788-.4A5.318,5.318,0,0,0,13.5-2.954a10.851,10.851,0,0,0,1.848-2.855,37.231,37.231,0,0,0,1.749-4.653q-1.683.066-3.267.2t-3.1.363q-.1-.033.033-.148a2.061,2.061,0,0,1,.379-.248,5.037,5.037,0,0,1,.545-.247,3.017,3.017,0,0,1,.462-.149q2.475-.132,5.082-.2.165-.528.33-1.089t.33-1.155a11.657,11.657,0,0,1,1.848-4.108A6.584,6.584,0,0,1,22.8-19.371q-1.782-.264-3.416-.478a23.981,23.981,0,0,0-3.118-.215,8.046,8.046,0,0,0-4.092.94A5.55,5.55,0,0,0,9.8-15.906a.144.144,0,0,1-.2.033.257.257,0,0,1-.1-.231,6.862,6.862,0,0,1,2.855-3.762,9.282,9.282,0,0,1,5.263-1.419,23.165,23.165,0,0,1,2.458.132q1.238.132,2.524.313t2.656.379Q26.631-20.262,28.116-20.13ZM29.106-6.8q0,1.881-4.983,2.574-.033.33-.049.66t-.017.693a1.971,1.971,0,0,0,.4,1.32,1.565,1.565,0,0,0,1.254.462,2.663,2.663,0,0,0,1.287-.363,3.088,3.088,0,0,0,1.056-.924.132.132,0,0,1,.2.049.323.323,0,0,1,.033.247A6,6,0,0,1,26.615-.61,4.1,4.1,0,0,1,24.453,0a2.124,2.124,0,0,1-1.667-.577,2.383,2.383,0,0,1-.511-1.633A5.874,5.874,0,0,1,22.7-4.34a8.817,8.817,0,0,1,1.105-2.029,6.071,6.071,0,0,1,1.551-1.5,3.178,3.178,0,0,1,1.765-.577,2.011,2.011,0,0,1,1.436.511A1.536,1.536,0,0,1,29.106-6.8ZM26.235-7.59a1.6,1.6,0,0,0-1.3.71,4.643,4.643,0,0,0-.743,2.194,6.038,6.038,0,0,0,2.343-.61A1.288,1.288,0,0,0,27.291-6.4a1.249,1.249,0,0,0-.3-.841A.955.955,0,0,0,26.235-7.59Zm12.9,5.511q.066-.066.165,0a.167.167,0,0,1,.066.2,5.425,5.425,0,0,1-1.32,1.37A2.43,2.43,0,0,1,36.663,0q-.759,0-.974-1.072A5.46,5.46,0,0,1,35.9-3.63,12.908,12.908,0,0,1,33.973-1.2,4.182,4.182,0,0,1,31.779,0a1.347,1.347,0,0,1-1.221-.726,3.246,3.246,0,0,1-.429-1.683,4.851,4.851,0,0,1,.528-2.162,7.056,7.056,0,0,1,1.4-1.93,7.825,7.825,0,0,1,1.947-1.4,4.733,4.733,0,0,1,2.161-.544,2.714,2.714,0,0,1,1.815.561,3.157,3.157,0,0,1,.841-.4,3,3,0,0,1,.908-.165q.132,0,.132.165a10.477,10.477,0,0,0-1.3,2.03,13.374,13.374,0,0,0-.841,2.112,9.126,9.126,0,0,0-.363,1.8,1.832,1.832,0,0,0,.132,1.089.541.541,0,0,0,.561.115Q38.445-1.221,39.138-2.079ZM32.8-1.221a1.657,1.657,0,0,0,.973-.5,8.562,8.562,0,0,0,1.2-1.32,19.955,19.955,0,0,0,1.237-1.848A18.618,18.618,0,0,0,37.29-6.963a1.2,1.2,0,0,0-.611-.693,2.251,2.251,0,0,0-1.105-.264,2.8,2.8,0,0,0-1.419.379,3.575,3.575,0,0,0-1.138,1.056,5.5,5.5,0,0,0-.759,1.617,7.193,7.193,0,0,0-.28,2.062,2.308,2.308,0,0,0,.248,1.155A.7.7,0,0,0,32.8-1.221ZM47.223-8.283q.165.066.132.182t-.3.181q-.495,0-1.139.033t-1.369.1a29.054,29.054,0,0,0-1.089,3.152,9.723,9.723,0,0,0-.429,2.491q0,1.122.858,1.122T45.8-2.508a.141.141,0,0,1,.181,0,.221.221,0,0,1,.049.231,5.968,5.968,0,0,1-1.419,1.6A2.735,2.735,0,0,1,42.933,0a1.731,1.731,0,0,1-1.271-.412,1.539,1.539,0,0,1-.412-1.139,10.689,10.689,0,0,1,.462-2.64A28.957,28.957,0,0,1,42.9-7.623a14.845,14.845,0,0,0-1.584.264q-.165-.033-.083-.165a1.053,1.053,0,0,1,.3-.28,2.469,2.469,0,0,1,.512-.264,1.55,1.55,0,0,1,.561-.116h.264a1.085,1.085,0,0,0,.264-.033q.429-.957.891-1.848t.924-1.617a1.816,1.816,0,0,1,.544-.412,3.842,3.842,0,0,1,.677-.281,2.7,2.7,0,0,1,.544-.116q.215-.016.181.116a21.543,21.543,0,0,0-1.105,1.914Q45.243-9.4,44.748-8.25q.627-.033,1.271-.033ZM48.51,0q-1.386,0-1.386-1.518a7.537,7.537,0,0,1,.116-1.221A9.471,9.471,0,0,1,47.6-4.174q.248-.743.577-1.5a9.293,9.293,0,0,1,.792-1.452q-.363.231-.693.479a5.532,5.532,0,0,0-.594.511q-.1.066-.181-.049a.175.175,0,0,1-.017-.215,7.633,7.633,0,0,1,1.6-1.221,12.425,12.425,0,0,1,2-.99.336.336,0,0,1,.248.082.17.17,0,0,1,.016.215,12.651,12.651,0,0,0-1.7,3,8.455,8.455,0,0,0-.644,3.135q0,.957.594.957A1.753,1.753,0,0,0,50.655-1.8a10.7,10.7,0,0,0,1.32-1.518q.693-.94,1.4-2.128t1.3-2.409a1.115,1.115,0,0,1,.577-.4,2.525,2.525,0,0,1,.974-.2q.495,0,.3.264-.462.858-.808,1.6a12.281,12.281,0,0,0-.577,1.468A9.81,9.81,0,0,0,54.8-3.647a10.664,10.664,0,0,0-.116,1.634q0,1.056.561,1.056t1.254-.99a.165.165,0,0,1,.2,0,.167.167,0,0,1,.066.2,4.422,4.422,0,0,1-1.238,1.3A2.3,2.3,0,0,1,54.285,0Q52.9,0,52.9-1.617a9.777,9.777,0,0,1,.594-3.333,15.135,15.135,0,0,1-2.64,3.614A3.822,3.822,0,0,1,48.51,0Zm13-7.491a7.273,7.273,0,0,1-.1,1.122q-.1.627-.264,1.287A8.846,8.846,0,0,1,62.6-7.557a2.29,2.29,0,0,1,1.716-.891,1.118,1.118,0,0,1,.759.231.753.753,0,0,1,.264.594,2.158,2.158,0,0,1-.247.858,3.684,3.684,0,0,1-.412.726.118.118,0,0,1-.132-.016.143.143,0,0,1-.066-.115.517.517,0,0,0-.181-.4.786.786,0,0,0-.545-.165q-1.155,0-2.1,1.568a18.263,18.263,0,0,0-1.733,4.5.432.432,0,0,1-.231.28,2.368,2.368,0,0,1-.445.2,3.872,3.872,0,0,1-.512.132A2.549,2.549,0,0,1,58.278,0q-.363,0-.2-.4.3-.693.577-1.5t.512-1.634q.231-.825.4-1.6t.264-1.436a4.2,4.2,0,0,0,.049-.759.25.25,0,0,0-.28-.264,1.085,1.085,0,0,0-.677.281,3.374,3.374,0,0,0-.643.709.193.193,0,0,1-.248.016.152.152,0,0,1-.049-.214,5.139,5.139,0,0,1,.479-.544,4.965,4.965,0,0,1,.627-.528,3.971,3.971,0,0,1,.726-.412,1.927,1.927,0,0,1,.775-.165.888.888,0,0,1,.726.247A1.112,1.112,0,0,1,61.512-7.491ZM71.841-6.8q0,1.881-4.983,2.574-.033.33-.049.66t-.016.693a1.971,1.971,0,0,0,.4,1.32,1.565,1.565,0,0,0,1.254.462,2.663,2.663,0,0,0,1.287-.363,3.088,3.088,0,0,0,1.056-.924.132.132,0,0,1,.2.049.323.323,0,0,1,.033.247A6,6,0,0,1,69.349-.61,4.1,4.1,0,0,1,67.188,0a2.124,2.124,0,0,1-1.666-.577,2.383,2.383,0,0,1-.512-1.633,5.873,5.873,0,0,1,.429-2.129,8.817,8.817,0,0,1,1.105-2.029,6.071,6.071,0,0,1,1.551-1.5,3.178,3.178,0,0,1,1.766-.577,2.011,2.011,0,0,1,1.435.511A1.536,1.536,0,0,1,71.841-6.8ZM68.97-7.59a1.6,1.6,0,0,0-1.3.71,4.643,4.643,0,0,0-.743,2.194,6.038,6.038,0,0,0,2.343-.61A1.288,1.288,0,0,0,70.026-6.4a1.249,1.249,0,0,0-.3-.841A.955.955,0,0,0,68.97-7.59Z" transform="translate(0 25)" fill="#f5a8bd" opacity="0.73"/></g></svg>