<svg xmlns="http://www.w3.org/2000/svg" xmlns:xlink="http://www.w3.org/1999/xlink" width="95" height="33" viewBox="0 0 95 33"><defs><clipPath id="b"><rect width="95" height="33"/></clipPath></defs><g id="a" clip-path="url(#b)"><path d="M16.005-21.252a18.883,18.883,0,0,1,2.178.115,9.24,9.24,0,0,1,1.716.347,3.788,3.788,0,0,1,1.139.544.891.891,0,0,1,.412.71,2.656,2.656,0,0,1-.132.709q-.132.446-.314.924a10.156,10.156,0,0,1-.412.941,4.865,4.865,0,0,1-.429.726.228.228,0,0,1-.247-.017.177.177,0,0,1-.083-.247q.693-1.221.3-1.881a4.058,4.058,0,0,0-1.815-1.32,8.32,8.32,0,0,0-3.432-.627,11.81,11.81,0,0,0-4.5.792,8.571,8.571,0,0,0-3.218,2.244,9.457,9.457,0,0,0-1.93,3.531,15.7,15.7,0,0,0-.644,4.653,11.29,11.29,0,0,0,.495,3.415A7.8,7.8,0,0,0,6.534-2.986,6.709,6.709,0,0,0,8.877-1.2a7.442,7.442,0,0,0,3.168.643,5.6,5.6,0,0,0,3.96-1.468A8.051,8.051,0,0,0,18.249-5.94a.188.188,0,0,1,.231-.132.184.184,0,0,1,.165.2q-.132.693-.38,1.534t-.544,1.584a12.069,12.069,0,0,1-.594,1.287q-.3.545-.495.61a13.369,13.369,0,0,1-2.359.627A15.781,15.781,0,0,1,11.517,0Q6.9,0,4.587-2.145a7.706,7.706,0,0,1-2.31-5.94,13.51,13.51,0,0,1,1.007-5.23A12.121,12.121,0,0,1,6.122-17.49a13.473,13.473,0,0,1,4.34-2.756A14.758,14.758,0,0,1,16.005-21.252ZM29.073-2.079q.066-.066.165,0a.167.167,0,0,1,.066.2,5.425,5.425,0,0,1-1.32,1.37A2.43,2.43,0,0,1,26.6,0q-.759,0-.973-1.072a5.46,5.46,0,0,1,.215-2.557A12.908,12.908,0,0,1,23.909-1.2,4.182,4.182,0,0,1,21.714,0a1.347,1.347,0,0,1-1.221-.726,3.246,3.246,0,0,1-.429-1.683,4.851,4.851,0,0,1,.528-2.162,7.056,7.056,0,0,1,1.4-1.93,7.825,7.825,0,0,1,1.947-1.4A4.733,4.733,0,0,1,26.1-8.448a2.714,2.714,0,0,1,1.815.561,3.157,3.157,0,0,1,.842-.4,3,3,0,0,1,.907-.165q.132,0,.132.165a10.477,10.477,0,0,0-1.3,2.03,13.373,13.373,0,0,0-.842,2.112,9.127,9.127,0,0,0-.363,1.8,1.832,1.832,0,0,0,.132,1.089.541.541,0,0,0,.561.115Q28.38-1.221,29.073-2.079Zm-6.336.858a1.657,1.657,0,0,0,.974-.5,8.562,8.562,0,0,0,1.2-1.32,19.956,19.956,0,0,0,1.237-1.848,18.618,18.618,0,0,0,1.073-2.079,1.2,1.2,0,0,0-.611-.693,2.251,2.251,0,0,0-1.105-.264,2.8,2.8,0,0,0-1.419.379,3.575,3.575,0,0,0-1.139,1.056,5.5,5.5,0,0,0-.759,1.617,7.193,7.193,0,0,0-.281,2.062A2.309,2.309,0,0,0,22.16-1.65.7.7,0,0,0,22.737-1.221ZM34.32-7.491a7.273,7.273,0,0,1-.1,1.122q-.1.627-.264,1.287a8.846,8.846,0,0,1,1.452-2.475,2.29,2.29,0,0,1,1.716-.891,1.118,1.118,0,0,1,.759.231.753.753,0,0,1,.264.594,2.158,2.158,0,0,1-.248.858,3.684,3.684,0,0,1-.413.726.118.118,0,0,1-.132-.016.143.143,0,0,1-.066-.115.517.517,0,0,0-.181-.4.786.786,0,0,0-.545-.165q-1.155,0-2.1,1.568a18.263,18.263,0,0,0-1.733,4.5.432.432,0,0,1-.231.28,2.368,2.368,0,0,1-.445.2,3.872,3.872,0,0,1-.512.132A2.549,2.549,0,0,1,31.086,0q-.363,0-.2-.4.3-.693.577-1.5t.512-1.634q.231-.825.4-1.6t.264-1.436a4.2,4.2,0,0,0,.049-.759.25.25,0,0,0-.28-.264,1.085,1.085,0,0,0-.677.281,3.374,3.374,0,0,0-.643.709.193.193,0,0,1-.247.016.152.152,0,0,1-.049-.214,5.139,5.139,0,0,1,.478-.544,4.965,4.965,0,0,1,.627-.528,3.971,3.971,0,0,1,.726-.412,1.927,1.927,0,0,1,.775-.165.888.888,0,0,1,.726.247A1.112,1.112,0,0,1,34.32-7.491ZM44.649-6.8q0,1.881-4.983,2.574-.033.33-.049.66t-.017.693a1.971,1.971,0,0,0,.4,1.32,1.565,1.565,0,0,0,1.254.462,2.663,2.663,0,0,0,1.287-.363,3.088,3.088,0,0,0,1.056-.924.132.132,0,0,1,.2.049.323.323,0,0,1,.033.247A6,6,0,0,1,42.158-.61,4.1,4.1,0,0,1,40,0a2.124,2.124,0,0,1-1.667-.577,2.383,2.383,0,0,1-.511-1.633,5.874,5.874,0,0,1,.429-2.129,8.817,8.817,0,0,1,1.106-2.029,6.071,6.071,0,0,1,1.551-1.5,3.178,3.178,0,0,1,1.765-.577,2.011,2.011,0,0,1,1.436.511A1.536,1.536,0,0,1,44.649-6.8ZM41.778-7.59a1.6,1.6,0,0,0-1.3.71,4.643,4.643,0,0,0-.743,2.194,6.038,6.038,0,0,0,2.343-.61A1.288,1.288,0,0,0,42.834-6.4a1.249,1.249,0,0,0-.3-.841A.955.955,0,0,0,41.778-7.59ZM62.4-6.93q0-.693-.5-.693-.99,0-2.343,1.832A19.5,19.5,0,0,0,57.057-.561q-.066.2-.545.38A2.561,2.561,0,0,1,55.6,0q-.4,0-.3-.3.2-.594.545-1.485t.66-1.831q.314-.941.545-1.782a5.323,5.323,0,0,0,.231-1.3q0-.891-.561-.891-.858,0-2.161,1.766A20.441,20.441,0,0,0,52.041-.561q-.066.2-.528.38A2.292,2.292,0,0,1,50.688,0a.469.469,0,0,1-.264-.066q-.1-.066-.033-.231.264-.726.561-1.6t.594-1.766q.3-.891.545-1.749t.445-1.617q.1-.594-.2-.594a.994.994,0,0,0-.627.363,7.4,7.4,0,0,0-.726.858.152.152,0,0,1-.2-.016.124.124,0,0,1-.033-.181,5.384,5.384,0,0,1,1.188-1.3,2.36,2.36,0,0,1,1.485-.544.736.736,0,0,1,.709.33,1.116,1.116,0,0,1,.083.792q-.132.726-.264,1.221t-.363,1.122a10.372,10.372,0,0,1,1.9-2.492,3.216,3.216,0,0,1,2.228-.973,1.193,1.193,0,0,1,.908.33,1.109,1.109,0,0,1,.313.792,7.856,7.856,0,0,1-.462,2.607,12.558,12.558,0,0,1,2.063-2.772,3.394,3.394,0,0,1,2.425-.957A1.144,1.144,0,0,1,63.9-8.1a1.12,1.12,0,0,1,.28.709,3.632,3.632,0,0,1-.247,1.238q-.248.677-.561,1.419T62.815-3.25a4.53,4.53,0,0,0-.247,1.436q0,.825.528.825t1.419-1.089a.124.124,0,0,1,.182.033.2.2,0,0,1,.016.231A6.9,6.9,0,0,1,63.36-.495,2.334,2.334,0,0,1,62.007,0q-1.089,0-1.089-1.254a5.805,5.805,0,0,1,.231-1.6q.231-.809.512-1.551t.511-1.4A3.506,3.506,0,0,0,62.4-6.93ZM72.666-6.8q0,1.881-4.983,2.574-.033.33-.049.66t-.016.693a1.971,1.971,0,0,0,.4,1.32,1.565,1.565,0,0,0,1.254.462,2.663,2.663,0,0,0,1.287-.363,3.088,3.088,0,0,0,1.056-.924.132.132,0,0,1,.2.049.323.323,0,0,1,.033.247A6,6,0,0,1,70.174-.61,4.1,4.1,0,0,1,68.013,0a2.124,2.124,0,0,1-1.666-.577,2.383,2.383,0,0,1-.512-1.633,5.873,5.873,0,0,1,.429-2.129,8.817,8.817,0,0,1,1.105-2.029,6.071,6.071,0,0,1,1.551-1.5,3.178,3.178,0,0,1,1.766-.577,2.011,2.011,0,0,1,1.435.511A1.536,1.536,0,0,1,72.666-6.8ZM69.795-7.59a1.6,1.6,0,0,0-1.3.71,4.643,4.643,0,0,0-.743,2.194,6.038,6.038,0,0,0,2.343-.61A1.288,1.288,0,0,0,70.851-6.4a1.249,1.249,0,0,0-.3-.841A.955.955,0,0,0,69.795-7.59ZM83.028-2.31q.066-.066.165.016a.2.2,0,0,1,.066.214A7.469,7.469,0,0,1,81.89-.627,2.452,2.452,0,0,1,80.355,0a1.094,1.094,0,0,1-.875-.363,1.413,1.413,0,0,1-.313-.957,8.64,8.64,0,0,1,.412-2.508,17.628,17.628,0,0,1,1.105-2.739,1.243,1.243,0,0,0,.1-.5q0-.33-.3-.33a4,4,0,0,0-2.706,1.667,15.9,15.9,0,0,0-2.739,5.3.366.366,0,0,1-.215.182,2.018,2.018,0,0,1-.412.132q-.231.05-.462.083A2.728,2.728,0,0,1,73.59,0a.391.391,0,0,1-.248-.066Q73.26-.132,73.326-.3q.561-1.419,1.138-3.118t1.007-3.415a.746.746,0,0,0,.033-.478.234.234,0,0,0-.231-.148,1,1,0,0,0-.693.313,4.937,4.937,0,0,0-.594.676A.124.124,0,0,1,73.8-6.5a.2.2,0,0,1-.049-.2,5.183,5.183,0,0,1,.446-.528,5.552,5.552,0,0,1,.644-.577,3.893,3.893,0,0,1,.759-.462,1.887,1.887,0,0,1,.792-.182.758.758,0,0,1,.743.347,1.248,1.248,0,0,1,.083.841q-.165.726-.347,1.369t-.445,1.435A9.446,9.446,0,0,1,77.4-5.891a8.9,8.9,0,0,1,1.287-1.287A6.263,6.263,0,0,1,80.223-8.1a4.471,4.471,0,0,1,1.749-.347.868.868,0,0,1,.611.2.611.611,0,0,1,.214.462,1.5,1.5,0,0,1-.231.825,17.644,17.644,0,0,0-1.172,2.59,7.2,7.2,0,0,0-.479,2.393q0,.858.561.858a1.148,1.148,0,0,0,.726-.3A5.647,5.647,0,0,0,83.028-2.31ZM85.734,0q-1.386,0-1.386-1.518a7.536,7.536,0,0,1,.116-1.221,9.471,9.471,0,0,1,.363-1.436q.248-.743.577-1.5A9.293,9.293,0,0,1,86.2-7.128q-.363.231-.693.479a5.532,5.532,0,0,0-.594.511q-.1.066-.181-.049a.175.175,0,0,1-.017-.215,7.633,7.633,0,0,1,1.6-1.221,12.426,12.426,0,0,1,2-.99.336.336,0,0,1,.247.082.17.17,0,0,1,.017.215,12.651,12.651,0,0,0-1.7,3,8.455,8.455,0,0,0-.644,3.135q0,.957.594.957A1.753,1.753,0,0,0,87.879-1.8,10.7,10.7,0,0,0,89.2-3.317q.693-.94,1.4-2.128t1.3-2.409a1.115,1.115,0,0,1,.577-.4,2.525,2.525,0,0,1,.974-.2q.5,0,.3.264-.462.858-.809,1.6a12.282,12.282,0,0,0-.577,1.468,9.811,9.811,0,0,0-.346,1.469A10.664,10.664,0,0,0,91.9-2.013q0,1.056.561,1.056t1.254-.99a.165.165,0,0,1,.2,0,.167.167,0,0,1,.066.2,4.422,4.422,0,0,1-1.238,1.3A2.3,2.3,0,0,1,91.509,0q-1.386,0-1.386-1.617a9.777,9.777,0,0,1,.594-3.333,15.136,15.136,0,0,1-2.64,3.614A3.822,3.822,0,0,1,85.734,0Z" transform="translate(1 25)" fill="#f5a8bd" opacity="0.73"/></g></svg>