<svg xmlns="http://www.w3.org/2000/svg" viewBox="0 0 264.583 175.43"><defs><style>.cls-1{fill:#9e4780;}</style></defs><title>icon_free</title><g id="レイヤー_2" data-name="レイヤー 2"><g id="レイヤ_1" data-name="レイヤ－ 1"><path class="cls-1" d="M64.471,43.55A153.475,153.475,0,0,1,91.086,32.792l.2-.057.206-.046c1.812-.412,44.836-9.946,85.819,2.049a137.66,137.66,0,0,1,20.962,8.042,200.27,200.27,0,0,1,66.307-16.53V0H0V27.546C8.791,28.425,37.293,31.668,64.471,43.55Z"/><path class="cls-1" d="M216.958,53.878c19.136,13.949,29.7,31.112,30.351,44.862.82,17.214-3.1,30.487-11.645,39.45-8.323,8.729-20.707,13.154-36.807,13.154-19.853,0-31.766-7.746-38.264-14.244-7.249-7.249-10.627-15.807-10.627-19.308l.155,1.59-.067-.293c-2.317-10.077-6.838-43.762,28.207-65.916-1.889-.651-3.8-1.29-5.794-1.874C137.2,40.976,98.609,48.814,95.528,49.47c-.972.287-5.6,1.706-11.9,4.3,13.166,8.6,24.387,19.977,30.273,34.988,4.273,10.895,3.506,29.391-6.226,43.661-6.185,9.071-18.339,19.883-41.35,19.88-14.388-.4-42.826-9.262-47.472-39.925-3.934-25.968,10.4-44.691,27.322-57.439A216.894,216.894,0,0,0,0,44.932v130.5H264.583V43.54A185.089,185.089,0,0,0,216.958,53.878Z"/><path class="cls-1" d="M198.857,134.089c11.2,0,19.38-2.627,24.319-7.806,5.236-5.492,7.492-14.233,6.9-26.722-.455-9.568-10.983-25.443-32.134-37.551-2.425,1.21-4.869,2.494-7.323,3.872-27.044,15.17-26.485,37.425-23.745,49.341.065.284.125.586.182.891C167.4,117.223,173.07,134.089,198.857,134.089Z"/><path class="cls-1" d="M167.119,116.5a8.549,8.549,0,0,1,.1,1.3A8.09,8.09,0,0,0,167.119,116.5Z"/><path class="cls-1" d="M35.914,109.789c3.632,23.97,29.818,25.222,30.651,25.259,12.231,0,21.266-4.155,26.854-12.35,6.609-9.689,6.543-22.22,4.418-27.639C92.208,80.706,79.591,70.382,65.228,62.966,48.865,72.844,32.654,88.271,35.914,109.789Z"/></g></g></svg>