<svg xmlns="http://www.w3.org/2000/svg" viewBox="0 0 238.46 230.5"><defs><style>.cls-1{fill:#fff;}.cls-2{fill:#31ba22;}</style></defs><title>lcon_line</title><g id="レイヤー_2" data-name="レイヤー 2"><g id="Layer_1" data-name="Layer 1"><path class="cls-1" d="M218.54,45.12S151-38.21,46,21.62c0,0-63.84,37-41.17,108.5,0,0,20.33,55.17,91.33,64.67,0,0,20.12.83,13.06,21.66s9.94,12.34,9.94,12.34,62.34-29.84,99.34-77.67S232.2,62,218.54,45.12Z"/><path class="cls-2" d="M47.37,74.17h0a5.71,5.71,0,0,1,5.71,5.71v40.63a.74.74,0,0,0,.74.74H71.76a5.44,5.44,0,0,1,5.45,5.44h0a5.45,5.45,0,0,1-5.45,5.45H46.69a5,5,0,0,1-5-5V79.88A5.71,5.71,0,0,1,47.37,74.17Z"/><path class="cls-2" d="M89.12,74.17h0a5.67,5.67,0,0,1,5.67,5.67V128.5a5.67,5.67,0,0,1-5.67,5.67h0a5.67,5.67,0,0,1-5.67-5.67V79.84A5.67,5.67,0,0,1,89.12,74.17Z"/><path class="cls-2" d="M112.05,74.17h0a5.54,5.54,0,0,1,4.64,2.52l23.15,35.6a.48.48,0,0,0,.89-.26V79.88a5.71,5.71,0,0,1,5.71-5.71h0a5.71,5.71,0,0,1,5.71,5.71v46.55a7.75,7.75,0,0,1-7.75,7.74h0a6,6,0,0,1-5-2.72l-23-35.28a.48.48,0,0,0-.89.26v32a5.71,5.71,0,0,1-5.71,5.71h0a5.71,5.71,0,0,1-5.71-5.71V82.12A8,8,0,0,1,112.05,74.17Z"/><path class="cls-2" d="M167.24,75h24a5.59,5.59,0,0,1,5.59,5.59h0a5.58,5.58,0,0,1-5.59,5.58h-17a.52.52,0,0,0-.52.52V97.81a.52.52,0,0,0,.52.52h17.1a5.48,5.48,0,0,1,5.48,5.48h0a5.48,5.48,0,0,1-5.48,5.49h-17.1a.52.52,0,0,0-.52.52v11a.52.52,0,0,0,.52.52h17a5.61,5.61,0,0,1,5.61,5.61h0a5.61,5.61,0,0,1-5.61,5.61H167.24a4.89,4.89,0,0,1-4.89-4.89V79.93A4.89,4.89,0,0,1,167.24,75Z"/></g></g></svg>