<?xml version="1.0" encoding="utf-8"?>
<!-- Generator: Adobe Illustrator 21.0.0, SVG Export Plug-In . SVG Version: 6.00 Build 0)  -->
<svg version="1.1" id="レイヤー_1" xmlns="http://www.w3.org/2000/svg" xmlns:xlink="http://www.w3.org/1999/xlink" x="0px"
	 y="0px" viewBox="0 0 264.6 175.4" style="enable-background:new 0 0 264.6 175.4;" xml:space="preserve">
<style type="text/css">
	.st0{fill:#A3A2A2;}
</style>
<title>icon_free</title>
<g id="レイヤー_2">
	<g id="レイヤ_1">
		<path class="st0" d="M64.5,43.5c8.5-4.4,17.4-8,26.6-10.8l0.2-0.1l0.2,0c1.8-0.4,44.8-9.9,85.8,2c7.2,2.1,14.2,4.8,21,8
			c21-9.3,43.4-14.9,66.3-16.5V0H0v27.5C8.8,28.4,37.3,31.7,64.5,43.5z"/>
		<path class="st0" d="M217,53.9c19.1,13.9,29.7,31.1,30.4,44.9c0.8,17.2-3.1,30.5-11.6,39.5c-8.3,8.7-20.7,13.2-36.8,13.2
			c-19.9,0-31.8-7.7-38.3-14.2c-7.2-7.2-10.6-15.8-10.6-19.3l0.2,1.6l-0.1-0.3c-2.3-10.1-6.8-43.8,28.2-65.9
			c-1.9-0.7-3.8-1.3-5.8-1.9c-35.3-10.3-73.9-2.5-76.9-1.8c-1,0.3-5.6,1.7-11.9,4.3c13.2,8.6,24.4,20,30.3,35
			c4.3,10.9,3.5,29.4-6.2,43.7c-6.2,9.1-18.3,19.9-41.3,19.9c-14.4-0.4-42.8-9.3-47.5-39.9c-3.9-26,10.4-44.7,27.3-57.4
			c-15-5-30.5-8.4-46.2-10v130.5h264.6V43.5C248.3,44.9,232.3,48.3,217,53.9z"/>
		<path class="st0" d="M198.9,134.1c11.2,0,19.4-2.6,24.3-7.8c5.2-5.5,7.5-14.2,6.9-26.7c-0.5-9.6-11-25.4-32.1-37.6
			c-2.4,1.2-4.9,2.5-7.3,3.9c-27,15.2-26.5,37.4-23.7,49.3c0.1,0.3,0.1,0.6,0.2,0.9C167.4,117.2,173.1,134.1,198.9,134.1z"/>
		<path class="st0" d="M167.1,116.5c0.1,0.4,0.1,0.9,0.1,1.3C167.2,117.4,167.2,116.9,167.1,116.5z"/>
		<path class="st0" d="M35.9,109.8c3.6,24,29.8,25.2,30.7,25.3c12.2,0,21.3-4.2,26.9-12.3c6.6-9.7,6.5-22.2,4.4-27.6
			C92.2,80.7,79.6,70.4,65.2,63C48.9,72.8,32.7,88.3,35.9,109.8z"/>
	</g>
</g>
</svg>
