<?xml version="1.0" encoding="utf-8"?>
<!-- Generator: Adobe Illustrator 24.1.0, SVG Export Plug-In . SVG Version: 6.00 Build 0)  -->
<svg version="1.1" id="Capa_1" xmlns="http://www.w3.org/2000/svg" xmlns:xlink="http://www.w3.org/1999/xlink" x="0px" y="0px"
	 viewBox="0 0 477.9 477.9" style="enable-background:new 0 0 477.9 477.9;" xml:space="preserve">
<style type="text/css">
	.st0{fill:#C1C1C1;}
</style>
<g>
	<g>
		<path class="st0" d="M460.8,0H273.1c-4.5,0-8.9,1.8-12.1,5L5,261c-6.7,6.7-6.7,17.5,0,24.1l0,0l187.7,187.7
			c6.7,6.7,17.5,6.7,24.1,0l256-256c3.2-3.2,5-7.6,5-12.1V17.1C477.9,7.6,470.2,0,460.8,0z M358.4,153.6
			c-18.9,0-34.1-15.3-34.1-34.1s15.3-34.1,34.1-34.1s34.1,15.3,34.1,34.1S377.3,153.6,358.4,153.6z"/>
	</g>
</g>
</svg>
